<mxfile host="65bd71144e">
    <diagram id="rod52r52kNfa3NlEOLUN" name="Modules">
        <mxGraphModel dx="3464" dy="520" grid="1" gridSize="10" guides="1" tooltips="1" connect="1" arrows="1" fold="1" page="1" pageScale="1" pageWidth="827" pageHeight="1169" math="0" shadow="0">
            <root>
                <mxCell id="0"/>
                <mxCell id="1" parent="0"/>
                <mxCell id="VXlHJT7sBxhjUFqZn03t-39" value="" style="rounded=0;whiteSpace=wrap;html=1;" vertex="1" parent="1">
                    <mxGeometry x="100" y="290" width="500" height="320" as="geometry"/>
                </mxCell>
                <mxCell id="2" value="tasks list&amp;nbsp;&lt;br&gt;operations&lt;br&gt;&lt;br&gt;create task&lt;br&gt;delete task&lt;br&gt;add taks nots&lt;br&gt;[reach editor]&lt;br&gt;" style="whiteSpace=wrap;html=1;aspect=fixed;" vertex="1" parent="1">
                    <mxGeometry x="80" y="40" width="150" height="150" as="geometry"/>
                </mxCell>
                <mxCell id="3" value="Hestory of task by dates&lt;br&gt;&lt;br&gt;history search&amp;nbsp;&lt;br&gt;notes search&lt;br&gt;[full text search]&lt;br&gt;&lt;br&gt;" style="whiteSpace=wrap;html=1;aspect=fixed;" vertex="1" parent="1">
                    <mxGeometry x="420" y="45" width="145" height="145" as="geometry"/>
                </mxCell>
                <mxCell id="4" value="task workflow&lt;br&gt;&lt;br&gt;todo&amp;nbsp;&lt;br&gt;inprogress&lt;br&gt;blocked&amp;nbsp;&lt;br&gt;done&lt;br&gt;" style="whiteSpace=wrap;html=1;aspect=fixed;" vertex="1" parent="1">
                    <mxGeometry x="250" y="45" width="145" height="145" as="geometry"/>
                </mxCell>
                <mxCell id="VXlHJT7sBxhjUFqZn03t-4" value="" style="endArrow=none;html=1;startArrow=none;" edge="1" parent="1" source="VXlHJT7sBxhjUFqZn03t-5">
                    <mxGeometry width="50" height="50" relative="1" as="geometry">
                        <mxPoint x="20" y="240" as="sourcePoint"/>
                        <mxPoint x="660" y="240" as="targetPoint"/>
                    </mxGeometry>
                </mxCell>
                <mxCell id="VXlHJT7sBxhjUFqZn03t-8" value="" style="rounded=1;whiteSpace=wrap;html=1;" vertex="1" parent="1">
                    <mxGeometry x="140" y="320" width="120" height="260" as="geometry"/>
                </mxCell>
                <mxCell id="VXlHJT7sBxhjUFqZn03t-9" value="" style="rounded=1;whiteSpace=wrap;html=1;" vertex="1" parent="1">
                    <mxGeometry x="275" y="320" width="120" height="260" as="geometry"/>
                </mxCell>
                <mxCell id="VXlHJT7sBxhjUFqZn03t-10" value="" style="rounded=1;whiteSpace=wrap;html=1;" vertex="1" parent="1">
                    <mxGeometry x="410" y="320" width="120" height="260" as="geometry"/>
                </mxCell>
                <mxCell id="VXlHJT7sBxhjUFqZn03t-11" value="todo" style="text;html=1;strokeColor=none;fillColor=none;align=center;verticalAlign=middle;whiteSpace=wrap;rounded=0;" vertex="1" parent="1">
                    <mxGeometry x="170" y="330" width="60" height="30" as="geometry"/>
                </mxCell>
                <mxCell id="VXlHJT7sBxhjUFqZn03t-12" value="inprogress" style="text;html=1;strokeColor=none;fillColor=none;align=center;verticalAlign=middle;whiteSpace=wrap;rounded=0;" vertex="1" parent="1">
                    <mxGeometry x="310" y="340" width="60" height="30" as="geometry"/>
                </mxCell>
                <mxCell id="VXlHJT7sBxhjUFqZn03t-13" value="done" style="text;html=1;strokeColor=none;fillColor=none;align=center;verticalAlign=middle;whiteSpace=wrap;rounded=0;" vertex="1" parent="1">
                    <mxGeometry x="430" y="340" width="60" height="30" as="geometry"/>
                </mxCell>
                <mxCell id="VXlHJT7sBxhjUFqZn03t-14" value="" style="endArrow=none;html=1;entryX=1;entryY=0.25;entryDx=0;entryDy=0;exitX=0;exitY=0.25;exitDx=0;exitDy=0;" edge="1" parent="1" source="VXlHJT7sBxhjUFqZn03t-9" target="VXlHJT7sBxhjUFqZn03t-9">
                    <mxGeometry width="50" height="50" relative="1" as="geometry">
                        <mxPoint x="360" y="500" as="sourcePoint"/>
                        <mxPoint x="410" y="450" as="targetPoint"/>
                    </mxGeometry>
                </mxCell>
                <mxCell id="VXlHJT7sBxhjUFqZn03t-16" value="" style="endArrow=none;html=1;entryX=1;entryY=0.25;entryDx=0;entryDy=0;exitX=0;exitY=0.25;exitDx=0;exitDy=0;" edge="1" parent="1" source="VXlHJT7sBxhjUFqZn03t-8" target="VXlHJT7sBxhjUFqZn03t-8">
                    <mxGeometry width="50" height="50" relative="1" as="geometry">
                        <mxPoint x="285" y="395" as="sourcePoint"/>
                        <mxPoint x="405" y="395" as="targetPoint"/>
                        <Array as="points"/>
                    </mxGeometry>
                </mxCell>
                <mxCell id="VXlHJT7sBxhjUFqZn03t-19" value="" style="endArrow=none;html=1;entryX=1;entryY=0.25;entryDx=0;entryDy=0;exitX=0;exitY=0.25;exitDx=0;exitDy=0;" edge="1" parent="1" source="VXlHJT7sBxhjUFqZn03t-10" target="VXlHJT7sBxhjUFqZn03t-10">
                    <mxGeometry width="50" height="50" relative="1" as="geometry">
                        <mxPoint x="420" y="440" as="sourcePoint"/>
                        <mxPoint x="470" y="390" as="targetPoint"/>
                    </mxGeometry>
                </mxCell>
                <mxCell id="VXlHJT7sBxhjUFqZn03t-25" value="List" style="strokeColor=#dddddd;shadow=1;strokeWidth=1;rounded=1;absoluteArcSize=1;arcSize=2;labelPosition=center;verticalLabelPosition=middle;align=center;verticalAlign=bottom;spacingLeft=0;fontColor=#999999;fontSize=12;whiteSpace=wrap;spacingBottom=2;" vertex="1" parent="1">
                    <mxGeometry x="140" y="390" width="110" height="160" as="geometry"/>
                </mxCell>
                <mxCell id="VXlHJT7sBxhjUFqZn03t-26" value="" style="sketch=0;dashed=0;connectable=0;html=1;fillColor=#757575;strokeColor=none;shape=mxgraph.gcp2.list;part=1;" vertex="1" parent="VXlHJT7sBxhjUFqZn03t-25">
                    <mxGeometry x="0.5" width="44.5" height="50" relative="1" as="geometry">
                        <mxPoint x="-22.25" y="10" as="offset"/>
                    </mxGeometry>
                </mxCell>
                <mxCell id="VXlHJT7sBxhjUFqZn03t-34" value="List" style="strokeColor=#dddddd;shadow=1;strokeWidth=1;rounded=1;absoluteArcSize=1;arcSize=2;labelPosition=center;verticalLabelPosition=middle;align=center;verticalAlign=bottom;spacingLeft=0;fontColor=#999999;fontSize=12;whiteSpace=wrap;spacingBottom=2;" vertex="1" parent="1">
                    <mxGeometry x="275" y="390" width="110" height="160" as="geometry"/>
                </mxCell>
                <mxCell id="VXlHJT7sBxhjUFqZn03t-35" value="" style="sketch=0;dashed=0;connectable=0;html=1;fillColor=#757575;strokeColor=none;shape=mxgraph.gcp2.list;part=1;" vertex="1" parent="VXlHJT7sBxhjUFqZn03t-34">
                    <mxGeometry x="0.5" width="44.5" height="50" relative="1" as="geometry">
                        <mxPoint x="-22.25" y="10" as="offset"/>
                    </mxGeometry>
                </mxCell>
                <mxCell id="VXlHJT7sBxhjUFqZn03t-36" value="List" style="strokeColor=#dddddd;shadow=1;strokeWidth=1;rounded=1;absoluteArcSize=1;arcSize=2;labelPosition=center;verticalLabelPosition=middle;align=center;verticalAlign=bottom;spacingLeft=0;fontColor=#999999;fontSize=12;whiteSpace=wrap;spacingBottom=2;" vertex="1" parent="1">
                    <mxGeometry x="414" y="390" width="110" height="160" as="geometry"/>
                </mxCell>
                <mxCell id="VXlHJT7sBxhjUFqZn03t-37" value="" style="sketch=0;dashed=0;connectable=0;html=1;fillColor=#757575;strokeColor=none;shape=mxgraph.gcp2.list;part=1;" vertex="1" parent="VXlHJT7sBxhjUFqZn03t-36">
                    <mxGeometry x="0.5" width="44.5" height="50" relative="1" as="geometry">
                        <mxPoint x="-22.25" y="10" as="offset"/>
                    </mxGeometry>
                </mxCell>
                <mxCell id="VXlHJT7sBxhjUFqZn03t-40" value="" style="rounded=1;whiteSpace=wrap;html=1;" vertex="1" parent="1">
                    <mxGeometry x="105" y="680" width="465" height="370" as="geometry"/>
                </mxCell>
                <mxCell id="VXlHJT7sBxhjUFqZn03t-41" value="On -pomodaro. inprogress task" style="text;html=1;align=center;verticalAlign=middle;resizable=0;points=[];autosize=1;strokeColor=none;fillColor=none;" vertex="1" parent="1">
                    <mxGeometry x="30" y="640" width="180" height="20" as="geometry"/>
                </mxCell>
                <mxCell id="VXlHJT7sBxhjUFqZn03t-42" value="&lt;b&gt;&lt;font style=&quot;font-size: 24px&quot;&gt;reverse timer&lt;/font&gt;&lt;/b&gt;&amp;nbsp;&amp;nbsp;" style="rounded=1;whiteSpace=wrap;html=1;" vertex="1" parent="1">
                    <mxGeometry x="182.5" y="780" width="310" height="190" as="geometry"/>
                </mxCell>
                <mxCell id="VXlHJT7sBxhjUFqZn03t-43" value="once complete then task goes to to done&amp;nbsp;" style="text;html=1;align=center;verticalAlign=middle;resizable=0;points=[];autosize=1;strokeColor=none;fillColor=none;fontSize=18;" vertex="1" parent="1">
                    <mxGeometry x="50" y="1080" width="340" height="30" as="geometry"/>
                </mxCell>
                <mxCell id="VXlHJT7sBxhjUFqZn03t-47" value="Task title" style="text;html=1;strokeColor=none;fillColor=none;align=center;verticalAlign=middle;whiteSpace=wrap;rounded=0;fontSize=18;" vertex="1" parent="1">
                    <mxGeometry x="182.5" y="720" width="260" height="30" as="geometry"/>
                </mxCell>
                <mxCell id="VXlHJT7sBxhjUFqZn03t-5" value="screens-1" style="text;html=1;strokeColor=none;fillColor=none;align=center;verticalAlign=middle;whiteSpace=wrap;rounded=0;" vertex="1" parent="1">
                    <mxGeometry x="20" y="220" width="60" height="30" as="geometry"/>
                </mxCell>
                <mxCell id="VXlHJT7sBxhjUFqZn03t-49" value="" style="endArrow=none;html=1;" edge="1" parent="1" target="VXlHJT7sBxhjUFqZn03t-5">
                    <mxGeometry width="50" height="50" relative="1" as="geometry">
                        <mxPoint x="20" y="240" as="sourcePoint"/>
                        <mxPoint x="660" y="240" as="targetPoint"/>
                    </mxGeometry>
                </mxCell>
                <mxCell id="VXlHJT7sBxhjUFqZn03t-50" value="&lt;meta charset=&quot;utf-8&quot;&gt;&lt;span style=&quot;color: rgb(0, 0, 0); font-family: helvetica; font-size: 12px; font-style: normal; font-weight: 400; letter-spacing: normal; text-align: center; text-indent: 0px; text-transform: none; word-spacing: 0px; background-color: rgb(248, 249, 250); display: inline; float: none;&quot;&gt;Tasks dashboard&lt;/span&gt;" style="rounded=0;whiteSpace=wrap;html=1;fontSize=18;" vertex="1" parent="1">
                    <mxGeometry x="100" y="260" width="500" height="30" as="geometry"/>
                </mxCell>
                <mxCell id="VXlHJT7sBxhjUFqZn03t-51" value="hestory" style="text;html=1;strokeColor=none;fillColor=none;align=center;verticalAlign=middle;whiteSpace=wrap;rounded=0;fontSize=18;" vertex="1" parent="1">
                    <mxGeometry x="530" y="260" width="60" height="30" as="geometry"/>
                </mxCell>
                <mxCell id="hr4sY8Hcqfn9ozd3l3qp-4" value="screen-2&amp;nbsp;" style="text;html=1;strokeColor=none;fillColor=none;align=center;verticalAlign=middle;whiteSpace=wrap;rounded=0;fontSize=18;" vertex="1" parent="1">
                    <mxGeometry x="30" y="670" width="90" height="30" as="geometry"/>
                </mxCell>
                <mxCell id="hr4sY8Hcqfn9ozd3l3qp-5" value="History" style="text;html=1;strokeColor=none;fillColor=none;align=center;verticalAlign=middle;whiteSpace=wrap;rounded=0;fontSize=18;" vertex="1" parent="1">
                    <mxGeometry x="50" y="1130" width="60" height="30" as="geometry"/>
                </mxCell>
            </root>
        </mxGraphModel>
    </diagram>
    <diagram id="wD6iGSzQ4Qsih4_My3X6" name="History screen">
        <mxGraphModel dx="626" dy="1699" grid="1" gridSize="10" guides="1" tooltips="1" connect="1" arrows="1" fold="1" page="1" pageScale="1" pageWidth="827" pageHeight="1169" math="0" shadow="0">
            <root>
                <mxCell id="HBFp8_4Cyev30WKszDl7-0"/>
                <mxCell id="HBFp8_4Cyev30WKszDl7-1" parent="HBFp8_4Cyev30WKszDl7-0"/>
                <mxCell id="M8wSzMS2KyfK6WLkgchv-0" value="" style="whiteSpace=wrap;html=1;aspect=fixed;fontSize=18;" vertex="1" parent="HBFp8_4Cyev30WKszDl7-1">
                    <mxGeometry x="50" y="-20" width="380" height="380" as="geometry"/>
                </mxCell>
                <mxCell id="M8wSzMS2KyfK6WLkgchv-1" value="search by task name" style="rounded=1;whiteSpace=wrap;html=1;fontSize=18;" vertex="1" parent="HBFp8_4Cyev30WKszDl7-1">
                    <mxGeometry x="90" y="20" width="220" height="20" as="geometry"/>
                </mxCell>
                <mxCell id="M8wSzMS2KyfK6WLkgchv-2" value="&lt;span&gt;search&lt;/span&gt;" style="rounded=0;whiteSpace=wrap;html=1;fontSize=18;" vertex="1" parent="HBFp8_4Cyev30WKszDl7-1">
                    <mxGeometry x="330" y="15" width="60" height="25" as="geometry"/>
                </mxCell>
                <mxCell id="M8wSzMS2KyfK6WLkgchv-9" value="date wise list" style="swimlane;fontStyle=0;childLayout=stackLayout;horizontal=1;startSize=30;horizontalStack=0;resizeParent=1;resizeParentMax=0;resizeLast=0;collapsible=1;marginBottom=0;fontSize=18;" vertex="1" parent="HBFp8_4Cyev30WKszDl7-1">
                    <mxGeometry x="60" y="70" width="140" height="210" as="geometry"/>
                </mxCell>
                <mxCell id="M8wSzMS2KyfK6WLkgchv-10" value="Item 1" style="text;strokeColor=none;fillColor=none;align=left;verticalAlign=middle;spacingLeft=4;spacingRight=4;overflow=hidden;points=[[0,0.5],[1,0.5]];portConstraint=eastwest;rotatable=0;fontSize=18;" vertex="1" parent="M8wSzMS2KyfK6WLkgchv-9">
                    <mxGeometry y="30" width="140" height="30" as="geometry"/>
                </mxCell>
                <mxCell id="M8wSzMS2KyfK6WLkgchv-11" value="Item 2" style="text;strokeColor=none;fillColor=none;align=left;verticalAlign=middle;spacingLeft=4;spacingRight=4;overflow=hidden;points=[[0,0.5],[1,0.5]];portConstraint=eastwest;rotatable=0;fontSize=18;" vertex="1" parent="M8wSzMS2KyfK6WLkgchv-9">
                    <mxGeometry y="60" width="140" height="30" as="geometry"/>
                </mxCell>
                <mxCell id="M8wSzMS2KyfK6WLkgchv-12" value="Item 3" style="text;strokeColor=none;fillColor=none;align=left;verticalAlign=middle;spacingLeft=4;spacingRight=4;overflow=hidden;points=[[0,0.5],[1,0.5]];portConstraint=eastwest;rotatable=0;fontSize=18;" vertex="1" parent="M8wSzMS2KyfK6WLkgchv-9">
                    <mxGeometry y="90" width="140" height="120" as="geometry"/>
                </mxCell>
                <mxCell id="M8wSzMS2KyfK6WLkgchv-14" value="tasks " style="swimlane;fontStyle=0;childLayout=stackLayout;horizontal=1;startSize=26;horizontalStack=0;resizeParent=1;resizeParentMax=0;resizeLast=0;collapsible=1;marginBottom=0;align=center;fontSize=14;" vertex="1" parent="HBFp8_4Cyev30WKszDl7-1">
                    <mxGeometry x="230" y="70" width="180" height="116" as="geometry"/>
                </mxCell>
                <mxCell id="M8wSzMS2KyfK6WLkgchv-15" value="Item 1" style="text;strokeColor=none;fillColor=none;spacingLeft=4;spacingRight=4;overflow=hidden;rotatable=0;points=[[0,0.5],[1,0.5]];portConstraint=eastwest;fontSize=12;" vertex="1" parent="M8wSzMS2KyfK6WLkgchv-14">
                    <mxGeometry y="26" width="180" height="30" as="geometry"/>
                </mxCell>
                <mxCell id="M8wSzMS2KyfK6WLkgchv-16" value="Item 2" style="text;strokeColor=none;fillColor=none;spacingLeft=4;spacingRight=4;overflow=hidden;rotatable=0;points=[[0,0.5],[1,0.5]];portConstraint=eastwest;fontSize=12;" vertex="1" parent="M8wSzMS2KyfK6WLkgchv-14">
                    <mxGeometry y="56" width="180" height="30" as="geometry"/>
                </mxCell>
                <mxCell id="M8wSzMS2KyfK6WLkgchv-17" value="Item 3" style="text;strokeColor=none;fillColor=none;spacingLeft=4;spacingRight=4;overflow=hidden;rotatable=0;points=[[0,0.5],[1,0.5]];portConstraint=eastwest;fontSize=12;" vertex="1" parent="M8wSzMS2KyfK6WLkgchv-14">
                    <mxGeometry y="86" width="180" height="30" as="geometry"/>
                </mxCell>
            </root>
        </mxGraphModel>
    </diagram>
</mxfile>